<svg xmlns="http://www.w3.org/2000/svg" viewBox="0 0 400 400" width="400" height="400">
  <defs>
    <pattern id="tainoPattern" x="0" y="0" width="100" height="100" patternUnits="userSpaceOnUse">
      <!-- Sun symbol -->
      <circle cx="50" cy="50" r="15" fill="none" stroke="#2E8B57" stroke-width="1.5" opacity="0.3"/>
      <line x1="50" y1="25" x2="50" y2="35" stroke="#2E8B57" stroke-width="1.5" opacity="0.3"/>
      <line x1="50" y1="65" x2="50" y2="75" stroke="#2E8B57" stroke-width="1.5" opacity="0.3"/>
      <line x1="25" y1="50" x2="35" y2="50" stroke="#2E8B57" stroke-width="1.5" opacity="0.3"/>
      <line x1="65" y1="50" x2="75" y2="50" stroke="#2E8B57" stroke-width="1.5" opacity="0.3"/>
      <line x1="32" y1="32" x2="39" y2="39" stroke="#2E8B57" stroke-width="1.5" opacity="0.3"/>
      <line x1="61" y1="61" x2="68" y2="68" stroke="#2E8B57" stroke-width="1.5" opacity="0.3"/>
      <line x1="68" y1="32" x2="61" y2="39" stroke="#2E8B57" stroke-width="1.5" opacity="0.3"/>
      <line x1="39" y1="61" x2="32" y2="68" stroke="#2E8B57" stroke-width="1.5" opacity="0.3"/>
      
      <!-- Small spiral -->
      <path d="M 80,20 Q 85,15 90,20 Q 95,25 90,30 Q 85,35 80,30 Q 75,25 80,20" 
            fill="none" stroke="#00A6D6" stroke-width="1" opacity="0.2"/>
      
      <!-- Frog silhouette -->
      <ellipse cx="20" cy="80" rx="8" ry="6" fill="#2E8B57" opacity="0.15"/>
      <circle cx="17" cy="78" r="2" fill="#2E8B57" opacity="0.15"/>
      <circle cx="23" cy="78" r="2" fill="#2E8B57" opacity="0.15"/>
    </pattern>
    
    <linearGradient id="bgGrad" x1="0%" y1="0%" x2="100%" y2="100%">
      <stop offset="0%" style="stop-color:#f0fdf4"/>
      <stop offset="100%" style="stop-color:#dcfce7"/>
    </linearGradient>
  </defs>
  
  <!-- Base background -->
  <rect width="400" height="400" fill="url(#bgGrad)"/>
  
  <!-- Pattern overlay -->
  <rect width="400" height="400" fill="url(#tainoPattern)"/>
  
  <!-- Subtle vignette -->
  <radialGradient id="vignette" cx="50%" cy="50%" r="70%">
    <stop offset="60%" style="stop-color:#fff;stop-opacity:0"/>
    <stop offset="100%" style="stop-color:#2E8B57;stop-opacity:0.1"/>
  </radialGradient>
  <rect width="400" height="400" fill="url(#vignette)"/>
</svg>