<svg xmlns="http://www.w3.org/2000/svg" viewBox="0 0 100 100" width="100" height="100">
  <!-- Taino Coqui Petroglyph Style -->
  <defs>
    <filter id="stone" x="0" y="0">
      <feTurbulence type="fractalNoise" baseFrequency="0.9" numOctaves="4" result="noise"/>
      <feDiffuseLighting in="noise" lighting-color="#8B7355" surfaceScale="2" result="light">
        <feDistantLight azimuth="45" elevation="60"/>
      </feDiffuseLighting>
    </filter>
  </defs>
  
  <!-- Background circle (stone texture) -->
  <circle cx="50" cy="50" r="48" fill="#D4C4A8" stroke="#8B7355" stroke-width="2"/>
  
  <!-- Stylized Coqui frog in Taino petroglyph style -->
  <!-- Body -->
  <ellipse cx="50" cy="55" rx="25" ry="20" fill="none" stroke="#5D4E37" stroke-width="3"/>
  
  <!-- Head -->
  <circle cx="50" cy="35" r="18" fill="none" stroke="#5D4E37" stroke-width="3"/>
  
  <!-- Large eyes (Taino style) -->
  <circle cx="42" cy="32" r="8" fill="none" stroke="#5D4E37" stroke-width="2"/>
  <circle cx="42" cy="32" r="3" fill="#5D4E37"/>
  
  <circle cx="58" cy="32" r="8" fill="none" stroke="#5D4E37" stroke-width="2"/>
  <circle cx="58" cy="32" r="3" fill="#5D4E37"/>
  
  <!-- Limbs -->
  <path d="M 30 50 L 20 40" stroke="#5D4E37" stroke-width="3" stroke-linecap="round"/>
  <path d="M 70 50 L 80 40" stroke="#5D4E37" stroke-width="3" stroke-linecap="round"/>
  <path d="M 32 65 L 22 75" stroke="#5D4E37" stroke-width="3" stroke-linecap="round"/>
  <path d="M 68 65 L 78 75" stroke="#5D4E37" stroke-width="3" stroke-linecap="round"/>
  
  <!-- Toes (Taino style circles) -->
  <circle cx="18" cy="38" r="3" fill="#5D4E37"/>
  <circle cx="15" cy="42" r="3" fill="#5D4E37"/>
  <circle cx="82" cy="38" r="3" fill="#5D4E37"/>
  <circle cx="85" cy="42" r="3" fill="#5D4E37"/>
  <circle cx="20" cy="77" r="3" fill="#5D4E37"/>
  <circle cx="17" cy="73" r="3" fill="#5D4E37"/>
  <circle cx="80" cy="77" r="3" fill="#5D4E37"/>
  <circle cx="83" cy="73" r="3" fill="#5D4E37"/>
  
  <!-- Decorative Taino patterns -->
  <circle cx="50" cy="55" r="8" fill="none" stroke="#5D4E37" stroke-width="2"/>
  <circle cx="50" cy="55" r="3" fill="#5D4E37"/>
  
  <!-- Sun rays (Taino symbolism) -->
  <line x1="50" y1="5" x2="50" y2="12" stroke="#5D4E37" stroke-width="2"/>
  <line x1="50" y1="88" x2="50" y2="95" stroke="#5D4E37" stroke-width="2"/>
  <line x1="5" y1="50" x2="12" y2="50" stroke="#5D4E37" stroke-width="2"/>
  <line x1="88" y1="50" x2="95" y2="50" stroke="#5D4E37" stroke-width="2"/>
  <line x1="18" y1="18" x2="23" y2="23" stroke="#5D4E37" stroke-width="2"/>
  <line x1="82" y1="18" x2="77" y2="23" stroke="#5D4E37" stroke-width="2"/>
  <line x1="18" y1="82" x2="23" y2="77" stroke="#5D4E37" stroke-width="2"/>
  <line x1="82" y1="82" x2="77" y2="77" stroke="#5D4E37" stroke-width="2"/>
</svg>